<?xml version="1.0" encoding="utf-8"?>
<!-- Generator: Adobe Illustrator 21.0.2, SVG Export Plug-In . SVG Version: 6.00 Build 0)  -->
<svg version="1.1" id="Capa_1" xmlns="http://www.w3.org/2000/svg" xmlns:xlink="http://www.w3.org/1999/xlink" x="0px" y="0px"
	 viewBox="0 0 511 511" style="enable-background:new 0 0 511 511;" xml:space="preserve">
<style type="text/css">
	.st0{fill:#30333D;stroke:#30333D;stroke-width:11;stroke-miterlimit:10;}
	.st1{fill:#30333D;stroke:#30333D;stroke-width:2;stroke-miterlimit:10;}
</style>
<g>
	<path class="st0" d="M492.2,309.6l-17.6-10.2c3-14.7,4.5-29.5,4.5-43.9c0-14.6-1.5-29.4-4.4-43.9l17.6-10.1
		c5.4-3.1,9.3-8.2,10.9-14.3s0.8-12.4-2.3-17.8l-48-83.1c-3.1-5.4-8.2-9.3-14.3-10.9c-6.1-1.6-12.4-0.8-17.8,2.3l-17.6,10.1
		c-22.2-19.5-48.3-34.6-76.1-44V23.5c0-13-10.5-23.5-23.5-23.5h-96c-13,0-23.5,10.5-23.5,23.5v20.2c-27.6,9.4-53.7,24.5-76,44.1
		L90.3,77.6c-5.4-3.1-11.8-4-17.8-2.3c-6.1,1.6-11.1,5.5-14.3,10.9l-48,83.1c-3.1,5.4-4,11.8-2.3,17.8s5.5,11.1,10.9,14.3l17.6,10.2
		c-3,14.7-4.5,29.5-4.5,43.9c0,14.6,1.5,29.4,4.4,43.9l-17.6,10.1c-11.2,6.5-15.1,20.9-8.6,32.1l48,83.1
		c6.5,11.2,20.9,15.1,32.1,8.6l17.6-10.1c22.2,19.5,48.3,34.6,76.1,44v20.2c0,13,10.5,23.5,23.5,23.5h96c13,0,23.5-10.5,23.5-23.5
		v-20.2c27.7-9.4,53.7-24.5,76-44.1l17.7,10.2c11.2,6.5,25.6,2.6,32.1-8.6l48-83.1C507.2,330.5,503.4,316.1,492.2,309.6z
		 M487.8,334.2l-48,83.1c-2.3,4.1-7.6,5.5-11.6,3.1l-22.4-12.9c-2.8-1.6-6.4-1.2-8.8,1c-22.9,21.2-50.4,37.1-79.7,46.2
		c-3.1,1-5.3,3.9-5.3,7.2v25.6c0,4.7-3.8,8.5-8.5,8.5h-96c-4.7,0-8.5-3.8-8.5-8.5v-25.6c0-3.3-2.1-6.2-5.3-7.2
		c-29.4-9.1-57-25.1-79.8-46.1c-1.4-1.3-3.2-2-5.1-2c-1.3,0-2.6,0.3-3.7,1l-22.3,12.9c-4.1,2.3-9.3,0.9-11.6-3.1l-48-83.1
		c-2.3-4.1-0.9-9.3,3.1-11.6l22.3-12.9c2.8-1.6,4.3-4.9,3.6-8.1c-3.4-15.2-5.2-30.7-5.2-46.1c0-15.1,1.8-30.6,5.2-46
		c0.7-3.2-0.7-6.5-3.6-8.1l-22.3-12.9c-2-1.1-3.4-3-4-5.2c-0.6-2.2-0.3-4.5,0.8-6.4l48-83.1c1.1-2,3-3.4,5.2-4
		c2.2-0.6,4.5-0.3,6.4,0.8l22.4,12.9c2.8,1.6,6.4,1.2,8.8-1c22.9-21.2,50.4-37.1,79.7-46.2c3.1-1,5.3-3.9,5.3-7.2V23.5
		c0-4.7,3.8-8.5,8.5-8.5h96c4.7,0,8.5,3.8,8.5,8.5v25.6c0,3.3,2.1,6.2,5.3,7.2c29.4,9.1,57,25.1,79.8,46.1c2.4,2.2,6,2.6,8.8,1
		l22.3-12.9c2-1.1,4.3-1.4,6.5-0.8c2.2,0.6,4,2,5.2,4l48,83.1c1.1,2,1.4,4.3,0.8,6.4s-2,4-4,5.2l-22.3,12.9
		c-2.8,1.6-4.3,4.9-3.6,8.1c3.4,15.2,5.2,30.7,5.2,46.1c0,15.1-1.8,30.6-5.2,46c-0.7,3.2,0.7,6.5,3.6,8.1l22.3,12.9
		C488.7,324.9,490.1,330.1,487.8,334.2z"/>
	<path class="st1" d="M303.7,191.1H258c-6.8,0-12.2,5.5-12.2,12.2v104.4c0,6.8,5.5,12.2,12.2,12.2s12.2-5.5,12.2-12.2v-26.9h33.4
		c24.7,0,44.9-20.1,44.9-44.9S328.4,191.1,303.7,191.1z M303.7,256.3h-33.4v-40.8h33.4c11.2,0,20.4,9.1,20.4,20.4
		C324.1,247.2,314.9,256.3,303.7,256.3z"/>
	<path class="st1" d="M174.9,199c-1.8-4.8-6.4-7.9-11.5-7.9h-13c-5.1,0-9.7,3.2-11.5,7.9L99.8,303.4c-2.4,6.3,0.8,13.4,7.2,15.7
		c6.3,2.4,13.4-0.8,15.7-7.2l6.8-18.2h54.8l6.8,18.2c1.8,4.9,6.5,7.9,11.5,7.9c1.4,0,2.9-0.3,4.3-0.8c6.3-2.4,9.5-9.4,7.2-15.7
		L174.9,199z M138.7,269.4l18.2-48.6l18.2,48.6H138.7z"/>
	<path class="st1" d="M391.8,191.1c-6.8,0-12.2,5.5-12.2,12.2v104.4c0,6.8,5.5,12.2,12.2,12.2s12.2-5.5,12.2-12.2V203.3
		C404,196.6,398.5,191.1,391.8,191.1z"/>
</g>
</svg>
