<?xml version="1.0" encoding="utf-8"?>
<!-- Generator: Adobe Illustrator 21.0.2, SVG Export Plug-In . SVG Version: 6.00 Build 0)  -->
<svg version="1.1" id="Camada_1" xmlns="http://www.w3.org/2000/svg" xmlns:xlink="http://www.w3.org/1999/xlink" x="0px" y="0px"
	 viewBox="0 0 1993.6 2500" style="enable-background:new 0 0 1993.6 2500;" xml:space="preserve">
<style type="text/css">
	.st0{fill:none;}
	.st1{fill:#30333D;}
	.st2{fill:#FFFFFF;}
	.st3{fill:url(#SVGID_1_);}
	.st4{fill:url(#SVGID_2_);}
	.st5{fill:url(#SVGID_3_);}
	.st6{opacity:5.000000e-02;enable-background:new    ;}
	.st7{fill:url(#SVGID_4_);}
</style>
<g>
	<path class="st0" d="M-452.7-159h2818v2818h-2818V-159z"/>
	<path class="st1" d="M1669,2286.8l-712.7,192l-712.7-191.8L79.1,505.1h1754.3L1669,2286.8z"/>
	<path class="st1" d="M956.3,649.4v1676.3l1.6,0.5l576.8-155.3l133.1-1521.4L956.3,649.4L956.3,649.4z"/>
	<path class="st1" d="M551.8,222.2V116.1h154.8V0H435.7v328h270.8V222.2H551.8z M984.8,116.1H1093V0H822.3v116
		c36.2,36.2,55.1,53.5,107.5,106c-30.7,0-107.5,0.1-107.5,0.1v105.8H1093V222.2L984.8,116.1L984.8,116.1z M1368.6,116.1h108.2V0
		h-270.8v116c36.2,36.2,55.1,53.5,107.5,106c-30.7,0-107.5,0.1-107.5,0.1v105.8h270.8V222.2L1368.6,116.1L1368.6,116.1z"/>
	<path class="st2" d="M955.6,1094.9l-510.1,212.5l16.9,210.3l493.1-210.9l524.6-224.3l21.8-215.2L955.6,1094.9L955.6,1094.9z"/>
	
		<linearGradient id="SVGID_1_" gradientUnits="userSpaceOnUse" x1="120.2255" y1="1741.9795" x2="120.2255" y2="1833.0674" gradientTransform="matrix(4.6418 0 0 -4.6418 142.5092 9603.6299)">
		<stop  offset="0.387" style="stop-color:#D1D3D4;stop-opacity:0"/>
		<stop  offset="1" style="stop-color:#D1D3D4"/>
	</linearGradient>
	<path class="st3" d="M445.5,1307.4l16.9,210.3l493.1-210.9v-211.9L445.5,1307.4z"/>
	
		<linearGradient id="SVGID_2_" gradientUnits="userSpaceOnUse" x1="234.0186" y1="1787.3899" x2="234.0186" y2="1882.0718" gradientTransform="matrix(4.6418 0 0 -4.6418 142.5092 9603.6299)">
		<stop  offset="0.387" style="stop-color:#D1D3D4;stop-opacity:0"/>
		<stop  offset="1" style="stop-color:#D1D3D4"/>
	</linearGradient>
	<path class="st4" d="M1502,867.4L955.6,1095v211.9l524.6-224.3L1502,867.4z"/>
	
		<linearGradient id="SVGID_3_" gradientUnits="userSpaceOnUse" x1="65.4537" y1="1701.353" x2="284.2007" y2="1701.353" gradientTransform="matrix(4.6418 0 0 -4.6418 142.5092 9603.6299)">
		<stop  offset="0" style="stop-color:#E8E7E5"/>
		<stop  offset="1" style="stop-color:#FFFFFF"/>
	</linearGradient>
	<path class="st5" d="M446.3,1307.4l16.9,210.3l756.7,2.4l-16.9,280.4l-249,70.1l-239.4-60.4l-14.5-174H477.8l29,336l449.6,133
		l447.3-130.5l58.1-667.2H446.3V1307.4z"/>
	<path class="st6" d="M955.6,1307.4H445.5l16.9,210.3l493.1,1.6V1307.4L955.6,1307.4z M955.6,1870l-2.4,0.7l-239.3-60.4l-14.5-174
		H477l29,336l449.6,133V1870z"/>
	
		<linearGradient id="SVGID_4_" gradientUnits="userSpaceOnUse" x1="55.376" y1="1858.8931" x2="292.87" y2="1858.8931" gradientTransform="matrix(4.6418 0 0 -4.6418 142.5092 9603.6299)">
		<stop  offset="0" style="stop-color:#E8E7E5"/>
		<stop  offset="1" style="stop-color:#FFFFFF"/>
	</linearGradient>
	<path class="st7" d="M399.6,867.4H1502l-21.8,215.2h-1054L399.6,867.4L399.6,867.4z"/>
	<path class="st6" d="M955.6,867.4h-556l26.6,215.2h529.4L955.6,867.4L955.6,867.4z"/>
</g>
</svg>
