<?xml version="1.0" encoding="utf-8"?>
<!-- Generator: Adobe Illustrator 21.0.2, SVG Export Plug-In . SVG Version: 6.00 Build 0)  -->
<svg version="1.1" id="Capa_1" xmlns="http://www.w3.org/2000/svg" xmlns:xlink="http://www.w3.org/1999/xlink" x="0px" y="0px"
	 viewBox="0 0 512 512" style="enable-background:new 0 0 512 512;" xml:space="preserve">
<style type="text/css">
	.st0{fill:#FB6F6F;}
	.st1{fill:#30333D;}
</style>
<rect x="38" y="162.4" class="st0" width="436" height="269.6"/>
<g>
	<path class="st1" d="M0,42v428h512V42H0z M496,124.4h-66.3V58H496V124.4z M413.7,58v66.4H16V58H413.7z M16,454V140.4h480V454H16z"
		/>
	<path class="st1" d="M256,186.3c-61.3,0-110.9,49.6-110.9,110.9S194.7,408.1,256,408.1s110.9-49.6,110.9-110.9c0,0,0,0,0,0
		C366.8,235.9,317.2,186.3,256,186.3z M342.6,258.3h-41.4c-3.1-20.1-8.7-38.4-16.5-51.6C310.4,214.9,331.5,233.7,342.6,258.3
		L342.6,258.3z M350.9,297.1c0,7.7-0.9,15.4-2.8,22.9h-45c0.7-7.6,1-15.2,1-22.9s-0.3-15.3-1-22.9h45
		C350,281.8,350.9,289.4,350.9,297.1L350.9,297.1z M256,392.1c-10.1,0-23.3-20.6-29.1-56h58.2C279.3,371.5,266.1,392.1,256,392.1z
		 M224.9,320.1c-0.6-7.2-1-14.8-1-22.9s0.4-15.7,1-22.9h62.3c0.6,7.2,1,14.8,1,22.9s-0.4,15.7-1,22.9H224.9z M161.1,297.2
		c0-7.7,0.9-15.4,2.8-22.9h45c-0.7,7.6-1,15.3-1,22.9s0.3,15.3,1,22.9h-45C162,312.5,161.1,304.9,161.1,297.2z M256,202.3
		c10.1,0,23.3,20.6,29.1,56h-58.2C232.7,222.9,245.9,202.3,256,202.3L256,202.3z M227.3,206.7c-7.8,13.2-13.4,31.5-16.5,51.6h-41.4
		C180.5,233.7,201.6,214.9,227.3,206.7z M169.4,336h41.4c3.1,20.1,8.7,38.4,16.5,51.6C201.6,379.4,180.5,360.6,169.4,336z
		 M284.7,387.6c7.8-13.2,13.4-31.5,16.5-51.6h41.4C331.5,360.6,310.4,379.4,284.7,387.6L284.7,387.6z"/>
</g>
</svg>
