<?xml version="1.0" encoding="utf-8"?>
<!-- Generator: Adobe Illustrator 21.0.2, SVG Export Plug-In . SVG Version: 6.00 Build 0)  -->
<svg version="1.1" id="Camada_1" xmlns="http://www.w3.org/2000/svg" xmlns:xlink="http://www.w3.org/1999/xlink" x="0px" y="0px"
	 viewBox="0 0 64 48.5" style="enable-background:new 0 0 64 48.5;" xml:space="preserve">
<style type="text/css">
	.st0{fill:#30333D;}
</style>
<path class="st0" d="M64,41.8c-2.3,0.6-3.8,0-5.1-1.9l-9.1-12.7l-1.3-1.8L37.7,39.9c-1.2,1.7-2.5,2.5-4.8,1.9l13.7-18.4L33.8,6.7
	c2.2-0.4,3.7-0.2,5.1,1.8l9.5,12.9L58,8.5c1.2-1.7,2.6-2.4,4.8-1.8l-5,6.6l-6.7,8.8c-0.8,1-0.7,1.7,0,2.6L64,41.8z M0,23.1l1.1-5.5
	C4.2,6.7,16.7,2.1,25.3,8.9c5.1,4,6.3,9.6,6.1,15.9H3C2.6,36.1,10.7,43,21.1,39.5c3.6-1.2,5.8-4.1,6.9-7.7c0.5-1.8,1.5-2.1,3.1-1.6
	c-0.9,4.5-2.8,8.2-6.9,10.5c-6.1,3.5-14.9,2.4-19.5-2.5C2,35.4,0.9,31.8,0.4,28c-0.1-0.6-0.3-1.2-0.4-1.8C0,25.1,0,24.1,0,23.1
	L0,23.1z M3,22.3h25.7c-0.2-8.2-5.3-14-12.3-14.1C8.8,8.2,3.3,13.8,3,22.3z"/>
</svg>
