<?xml version="1.0" encoding="utf-8"?>
<!-- Generator: Adobe Illustrator 21.0.2, SVG Export Plug-In . SVG Version: 6.00 Build 0)  -->
<svg version="1.1" id="Camada_1" xmlns="http://www.w3.org/2000/svg" xmlns:xlink="http://www.w3.org/1999/xlink" x="0px" y="0px"
	 viewBox="0 0 2500 727.4" style="enable-background:new 0 0 2500 727.4;" xml:space="preserve">
<style type="text/css">
	.st0{fill:#30333D;}
</style>
<path class="st0" d="M920.3,0c86.8-0.4,175.9,24.5,243.4,80.7c34.6,28,62.5,63.1,86.3,100.5c42.7-69,105.1-127.6,181.9-155.9
	c93.7-35.2,199.6-32.7,293.2,1.7c81.7,29.8,153.2,81.8,217.9,139c50.7,44.7,97.6,93.7,149.8,136.8c27.5,22.3,57.1,43.2,90.9,54.8
	c45,15.3,98.1,0.9,130.3-33.8c29.8-32.4,27.9-88.5-4.9-118.1c-20.9-18-56.5-14.4-71.3,9.6c-12.9,19-5.7,42.8,4.4,61.2
	c-26.9-19.6-53.8-47-53.7-82.6c-5.6-41.2,25-77.6,61.7-92c71.5-28.6,161.1-3.9,206.3,59c43.4,58.7,46.8,136,39.3,205.9
	c-9.1,66.5-46.3,128.5-101.4,167c-77.4,55.2-175.5,72.4-268.8,71.2c-89.7-2.4-178.5-22.7-261.6-56.2
	c-139-55.9-269-133.1-412.6-177.8c-47.6-18.5-98.2-28.5-149.2-31.6c-40.5-0.3-79-2.2-117.2,0.4c-46.7,4.5-93.1,14.1-136.8,31.2
	c-146,45.4-278,124.6-419.6,180.6c-119.6,46.5-252.1,68.1-379,42.3c-71-14.4-141.7-45.8-189.6-101.7C18.9,444.7-0.7,381,1.2,318.7
	c-2.3-58.9,10.6-121.4,49.6-167.2C87,108,145.3,86,201.3,90.8c36,1.7,72.6,17.4,94.8,46.4c17.5,23,18.6,54.4,10.9,81.3
	c-9.3,24.2-28.6,43-49.6,57.5c10.7-18.1,17.2-41.9,4.5-60.7c-15.6-25.1-53.9-27.7-74.1-7c-25,25.7-30.2,67.6-13.5,99.1
	c18.2,33,55.7,51.8,92.1,55.6c55,4.8,102.7-29.3,143.1-62.4c83.6-72,158.8-154.3,251.5-215.2C737.4,34.2,827.4-0.4,920.3,0L920.3,0z
	"/>
</svg>
