<?xml version="1.0" encoding="utf-8"?>
<!-- Generator: Adobe Illustrator 21.0.2, SVG Export Plug-In . SVG Version: 6.00 Build 0)  -->
<svg version="1.1" id="Camada_1" xmlns="http://www.w3.org/2000/svg" xmlns:xlink="http://www.w3.org/1999/xlink" x="0px" y="0px"
	 viewBox="0 0 1993.6 2500" style="enable-background:new 0 0 1993.6 2500;" xml:space="preserve">
<style type="text/css">
	.st0{fill:#30333D;}
	.st1{fill:#EBEBEB;}
	.st2{fill:#FFFFFF;}
</style>
<g>
	<path class="st0" d="M1880.2,490.1l-160.9,1803l-723.5,200.6l-721.5-200.3L113.5,490.1H1880.2L1880.2,490.1z"/>
	<path class="st0" d="M996.8,2340.4l584.6-162.1L1719,637.5H996.8V2340.4z"/>
	<path class="st1" d="M683.9,1079.9h312.9V858.7H442.2l5.3,59.3l54.4,609.5h494.9v-221.2H704.1L683.9,1079.9z M733.8,1638.1h-222
		l31,347.3l453.1,125.8l1-0.3v-230.1l-1,0.3l-246.3-66.5L733.8,1638.1L733.8,1638.1z"/>
	<path class="st0" d="M277.8,0h112.4v111h102.8V0h112.4v336.3H493.1V223.7H390.2v112.6H277.8L277.8,0L277.8,0z M753.3,111.5h-98.9V0
		h310.3v111.5h-99v224.8H753.3L753.3,111.5L753.3,111.5L753.3,111.5z M1013.9,0h117.2l72.1,118.2l72-118.2h117.2v336.3h-111.9V169.6
		l-77.3,119.6h-1.9l-77.4-119.6v166.7h-110V0z M1448.4,0h112.4v225.1h158.1v111.1h-270.5L1448.4,0L1448.4,0z"/>
	<path class="st2" d="M996.1,1527.5h272.3l-25.7,286.8L996,1880.9V2111l453.4-125.7l3.3-37.4l52-582.3l5.4-59.4H996.1V1527.5
		L996.1,1527.5z M996.1,1079.3v0.5h534.2l4.4-49.7l10.1-112.1l5.3-59.3h-554V1079.3L996.1,1079.3z"/>
</g>
</svg>
