<?xml version="1.0" encoding="utf-8"?>
<!-- Generator: Adobe Illustrator 21.0.2, SVG Export Plug-In . SVG Version: 6.00 Build 0)  -->
<svg version="1.1" id="Camada_1" xmlns="http://www.w3.org/2000/svg" xmlns:xlink="http://www.w3.org/1999/xlink" x="0px" y="0px"
	 viewBox="0 0 35 33" style="enable-background:new 0 0 35 33;" xml:space="preserve">
<style type="text/css">
	.st0{fill:#FB6F6F;}
</style>
<title>ic-backend</title>
<desc>Created with Sketch.</desc>
<g id="Page-1">
	<g id="ic-backend">
		<path id="Shape" class="st0" d="M33.7,0H1.3C0.6,0,0,0.6,0,1.3v30.1c0,0.7,0.6,1.3,1.3,1.3h32.4c0.7,0,1.3-0.6,1.3-1.3V1.3
			C35,0.6,34.4,0,33.7,0z M32.4,30.1H2.6V2.6h29.9V30.1L32.4,30.1z"/>
		<path id="Path" class="st0" d="M33.7,7.8H1.3C0.6,7.8,0,8.4,0,9.1s0.6,1.3,1.3,1.3h32.4c0.7,0,1.3-0.6,1.3-1.3S34.4,7.8,33.7,7.8z
			"/>
		<g id="Group" transform="translate(9.000000, 14.000000)">
			<path id="Path_1_" class="st0" d="M6.1,5L1.8,0.3c-0.4-0.4-1-0.5-1.5-0.1c-0.4,0.4-0.5,1-0.1,1.5l3.6,4l-3.6,4
				c-0.4,0.4-0.4,1.1,0.1,1.5c0.2,0.2,0.5,0.3,0.7,0.3c0.3,0,0.6-0.1,0.8-0.3l4.3-4.7C6.5,6.1,6.5,5.4,6.1,5z"/>
			<path id="Path_2_" class="st0" d="M16.4,9.3H6.9c-0.6,0-1,0.5-1,1c0,0.6,0.5,1,1,1h9.5c0.6,0,1-0.5,1-1C17.5,9.8,17,9.3,16.4,9.3
				z"/>
		</g>
	</g>
</g>
</svg>
