<?xml version="1.0" encoding="utf-8"?>
<!-- Generator: Adobe Illustrator 21.0.2, SVG Export Plug-In . SVG Version: 6.00 Build 0)  -->
<svg version="1.1" id="Camada_1" xmlns="http://www.w3.org/2000/svg" xmlns:xlink="http://www.w3.org/1999/xlink" x="0px" y="0px"
	 viewBox="0 0 35 33" style="enable-background:new 0 0 35 33;" xml:space="preserve">
<style type="text/css">
	.st0{fill:#FB6F6F;}
</style>
<title>ic-design</title>
<desc>Created with Sketch.</desc>
<g id="Page-1">
	<g id="ic-design">
		<path id="Shape" class="st0" d="M33.8,0H1.2C0.5,0,0,0.6,0,1.2v30.2c0,0.7,0.5,1.2,1.2,1.2h32.6c0.7,0,1.2-0.5,1.2-1.2V1.2
			C35,0.6,34.5,0,33.8,0z M32.6,30.3H2.4V2.4h30.2V30.3z"/>
		<path id="Path" class="st0" d="M33.8,7.3H1.2C0.5,7.3,0,7.8,0,8.5s0.5,1.2,1.2,1.2h32.6c0.7,0,1.2-0.5,1.2-1.2S34.5,7.3,33.8,7.3z
			"/>
		<g id="_x30_03-layers" transform="translate(9.000000, 13.000000)">
			<path id="Shape_1_" class="st0" d="M16.6,3.4L8.8,0.1C8.6,0,8.4,0,8.2,0.1L0.4,3.4C0.2,3.5,0,3.8,0,4c0,0.3,0.2,0.5,0.4,0.6
				L8.2,8C8.3,8,8.4,8,8.5,8S8.7,8,8.8,8l7.8-3.3C16.8,4.5,17,4.3,17,4C17,3.8,16.8,3.5,16.6,3.4z M8.5,6.6L2.4,4l6.1-2.6L14.6,4
				L8.5,6.6z"/>
			<path id="Path_1_" class="st0" d="M16.9,10.4c-0.1-0.3-0.5-0.5-0.9-0.4l-7.6,3.2l-7.6-3.2c-0.3-0.1-0.7,0-0.9,0.4
				c-0.1,0.3,0,0.7,0.4,0.9l7.8,3.4c0.1,0,0.2,0.1,0.3,0.1s0.2,0,0.3-0.1l7.8-3.4C16.9,11.2,17.1,10.8,16.9,10.4z"/>
			<path id="Path_2_" class="st0" d="M16.9,7.1c-0.1-0.3-0.5-0.5-0.9-0.4L8.5,10L0.9,6.8c-0.3-0.1-0.7,0-0.9,0.4
				c-0.1,0.3,0,0.7,0.4,0.9l7.8,3.3c0.1,0,0.2,0.1,0.3,0.1s0.2,0,0.3-0.1L16.6,8C16.9,7.8,17.1,7.4,16.9,7.1z"/>
		</g>
	</g>
</g>
</svg>
