<?xml version="1.0" encoding="utf-8"?>
<!-- Generator: Adobe Illustrator 21.0.2, SVG Export Plug-In . SVG Version: 6.00 Build 0)  -->
<svg version="1.1" id="Camada_1" xmlns="http://www.w3.org/2000/svg" xmlns:xlink="http://www.w3.org/1999/xlink" x="0px" y="0px"
	 viewBox="0 0 35 33" style="enable-background:new 0 0 35 33;" xml:space="preserve">
<style type="text/css">
	.st0{fill:#FB6F6F;}
</style>
<title>ic-frontend</title>
<desc>Created with Sketch.</desc>
<g id="Page-1">
	<g id="ic-frontend">
		<path id="Shape" class="st0" d="M33.8,0H1.2C0.5,0,0,0.5,0,1.2v30.2c0,0.7,0.5,1.2,1.2,1.2h32.6c0.7,0,1.2-0.5,1.2-1.2V1.2
			C35,0.5,34.5,0,33.8,0z M32.6,30.2H2.4V2.4h30.2V30.2z"/>
		<path id="Path" class="st0" d="M33.8,7.3H1.2C0.5,7.3,0,7.8,0,8.5s0.5,1.2,1.2,1.2h32.6c0.7,0,1.2-0.5,1.2-1.2S34.5,7.3,33.8,7.3z
			"/>
		<g id="Group-2" transform="translate(8.000000, 13.000000)">
			<path id="Path_1_" class="st0" d="M6,10.1L2.4,7.2L6,4.2C6.4,3.9,6.5,3.4,6.1,3C5.8,2.6,5.3,2.5,4.9,2.8L0.3,6.5
				C0.1,6.6,0,6.9,0,7.2s0.1,0.5,0.3,0.7l4.5,3.6c0.2,0.1,0.4,0.2,0.6,0.2c0.3,0,0.5-0.1,0.7-0.3C6.5,11,6.4,10.4,6,10.1z"/>
			<path id="Path_2_" class="st0" d="M18.4,6.5l-4.5-3.6c-0.4-0.3-1-0.2-1.3,0.1c-0.3,0.4-0.2,1,0.1,1.3l3.6,2.9l-3.6,2.9
				c-0.4,0.3-0.5,0.9-0.1,1.3c0.2,0.2,0.4,0.3,0.7,0.3c0.2,0,0.4-0.1,0.6-0.2l4.5-3.6c0.2-0.2,0.3-0.4,0.3-0.7S18.6,6.6,18.4,6.5z"
				/>
			<path id="Path_3_" class="st0" d="M11,0c-0.5-0.1-1,0.2-1.1,0.7L6.7,13.3c-0.1,0.5,0.2,1,0.7,1.1c0.1,0,0.1,0,0.2,0
				c0.4,0,0.8-0.3,0.9-0.7l3.2-12.6C11.8,0.6,11.5,0.2,11,0z"/>
		</g>
	</g>
</g>
</svg>
