<?xml version="1.0" encoding="utf-8"?>
<!-- Generator: Adobe Illustrator 21.0.2, SVG Export Plug-In . SVG Version: 6.00 Build 0)  -->
<svg version="1.1" id="Camada_1" xmlns="http://www.w3.org/2000/svg" xmlns:xlink="http://www.w3.org/1999/xlink" x="0px" y="0px"
	 viewBox="0 0 414 414" style="enable-background:new 0 0 414 414;" xml:space="preserve">
<style type="text/css">
	.st0{fill:#FB6F6F;}
</style>
<path class="st0" d="M367,389.3H47c-25.9,0-47-21.1-47-47V71c0-25.9,21.1-47,47-47h320c25.9,0,47,21.1,47,47v271.3
	C414,368.2,392.9,389.3,367,389.3z M47,38c-18.2,0-33,14.8-33,33v271.3c0,18.2,14.8,33,33,33h320c18.2,0,33-14.8,33-33V71
	c0-18.2-14.8-33-33-33H47z"/>
<path class="st0" d="M350.8,282.4h-110c-3.9,0-7-3.1-7-7c0-3.9,3.1-7,7-7h110c3.9,0,7,3.1,7,7C357.8,279.3,354.7,282.4,350.8,282.4z
	"/>
<path class="st0" d="M350.8,333h-110c-3.9,0-7-3.1-7-7c0-3.9,3.1-7,7-7h110c3.9,0,7,3.1,7,7C357.8,329.9,354.7,333,350.8,333z"/>
<path class="st0" d="M350.8,181.2h-110c-3.9,0-7-3.1-7-7c0-3.9,3.1-7,7-7h110c3.9,0,7,3.1,7,7C357.8,178.1,354.7,181.2,350.8,181.2z
	"/>
<path class="st0" d="M350.8,231.8h-110c-3.9,0-7-3.1-7-7c0-3.9,3.1-7,7-7h110c3.9,0,7,3.1,7,7C357.8,228.7,354.7,231.8,350.8,231.8z
	"/>
<path class="st0" d="M407,117.7H7c-3.9,0-7-3.1-7-7s3.1-7,7-7h400c3.9,0,7,3.1,7,7S410.9,117.7,407,117.7z"/>
<path class="st0" d="M100.9,92.8c-12,0-21.8-9.8-21.8-21.8s9.8-21.8,21.8-21.8S122.7,59,122.7,71S112.9,92.8,100.9,92.8z
	 M100.9,63.2c-4.3,0-7.8,3.5-7.8,7.8s3.5,7.8,7.8,7.8c4.3,0,7.8-3.5,7.8-7.8S105.2,63.2,100.9,63.2z"/>
<path class="st0" d="M50.5,92.8c-12,0-21.8-9.8-21.8-21.8s9.8-21.8,21.8-21.8c12,0,21.8,9.8,21.8,21.8S62.5,92.8,50.5,92.8z
	 M50.5,63.2c-4.3,0-7.8,3.5-7.8,7.8s3.5,7.8,7.8,7.8c4.3,0,7.8-3.5,7.8-7.8S54.8,63.2,50.5,63.2z"/>
<path class="st0" d="M151.3,92.8c-12,0-21.8-9.8-21.8-21.8s9.8-21.8,21.8-21.8S173.1,59,173.1,71S163.4,92.8,151.3,92.8z
	 M151.3,63.2c-4.3,0-7.8,3.5-7.8,7.8s3.5,7.8,7.8,7.8c4.3,0,7.8-3.5,7.8-7.8S155.6,63.2,151.3,63.2z"/>
<path class="st0" d="M188,333H61c-3.9,0-7-3.1-7-7V174.2c0-3.9,3.1-7,7-7h127c3.9,0,7,3.1,7,7V326C195,329.9,191.9,333,188,333z
	 M68,319h113V181.2H68V319z"/>
</svg>
