<?xml version="1.0" encoding="utf-8"?>
<!-- Generator: Adobe Illustrator 21.0.2, SVG Export Plug-In . SVG Version: 6.00 Build 0)  -->
<svg version="1.1" id="Camada_1" xmlns="http://www.w3.org/2000/svg" xmlns:xlink="http://www.w3.org/1999/xlink" x="0px" y="0px"
	 viewBox="0 0 20 20" style="enable-background:new 0 0 20 20;" xml:space="preserve">
<style type="text/css">
	.st0{fill:#30333D;}
</style>
<path class="st0" d="M10,0.4c-5.3,0-9.6,4.3-9.6,9.6c0,4.5,3.2,8.6,7.4,9.6v-3.2c-0.4,0.1-0.8,0.1-1.2,0c-0.6-0.2-1-0.5-1.4-1.1
	c-0.2-0.4-0.6-0.8-1-0.7L4,13.4c0.9-0.1,1.6,0.5,2.1,1.3c0.2,0.3,0.4,0.5,0.7,0.6c0.3,0.1,0.6,0,0.9-0.1c0.1-0.7,0.4-1,0.7-1.4
	c-2.5-0.4-3.5-1.7-3.9-2.8C4,9.7,4.3,8,5.2,6.9c0,0,0.1-0.1,0-0.1C4.8,5.5,5.4,4.4,5.4,4.3C5.9,4.5,6,4.2,7.5,5.1l0.3,0.2
	c0.1,0.1,0.1,0,0.2,0C8.6,5.1,9.3,5,10,5c0.7,0,1.4,0.1,2,0.3l0.1,0c0,0,0,0,0.1,0c2-1.2,1.9-0.8,2.4-1c0,0.1,0.5,1.2,0.1,2.5
	c-0.1,0.2,1.7,1.8,0.7,4.3c-0.4,1-1.4,2.4-3.9,2.8c0.3,0.5,0.7,0.8,0.7,1.8v4c4.2-1,7.4-5.1,7.4-9.6C19.6,4.7,15.3,0.4,10,0.4z"/>
</svg>
