<svg width="20" height="20" viewBox="0 0 25 26" fill="none" xmlns="http://www.w3.org/2000/svg">
<path d="M12.5001 0.5C5.63435 0.5 0 6.13434 0 13.0001C0 18.8589 4.11113 24.181 9.57039 25.5002V21.3646C9.02946 21.4831 8.53164 21.4865 7.98098 21.3242C7.24226 21.1062 6.64201 20.6141 6.19645 19.8637C5.91244 19.3846 5.40909 18.865 4.88399 18.9032L4.75525 17.444C5.8907 17.3468 6.87299 18.1358 7.45607 19.1155C7.71509 19.5511 8.01321 19.8065 8.39583 19.9194C8.76567 20.0283 9.16278 19.9761 9.62551 19.8126C9.74167 18.8862 10.1661 18.5394 10.4867 18.0511C7.23081 17.5655 5.93323 15.8375 5.41825 14.4741C4.73579 12.6638 5.10201 10.4023 6.30879 8.97307C6.33226 8.94522 6.3746 8.87236 6.35819 8.82143C5.80487 7.15001 6.47912 5.76737 6.50392 5.62069C7.1425 5.80952 7.24626 5.43072 9.2778 6.66497L9.62894 6.87592C9.77581 6.96347 9.72965 6.9135 9.87652 6.90244C10.7247 6.67203 11.6189 6.54481 12.4999 6.53336C13.3876 6.54481 14.276 6.67203 15.1593 6.91178L15.273 6.92323C15.2631 6.9217 15.3039 6.91598 15.3724 6.87516C17.9101 5.33802 17.819 5.84042 18.4995 5.61916C18.5241 5.76603 19.1894 7.17118 18.642 8.82143C18.5682 9.04879 20.8421 11.1311 19.5818 14.4735C19.0668 15.8375 17.7694 17.5648 14.5135 18.0504C14.9308 18.6865 15.4323 19.0256 15.4296 20.3379V25.5002C20.8891 24.181 25 18.8589 25 13.0001C25.0002 6.13434 19.3658 0.5 12.5001 0.5Z" fill="#30333D"/>
</svg>
