<?xml version="1.0" encoding="utf-8"?>
<!-- Generator: Adobe Illustrator 21.0.2, SVG Export Plug-In . SVG Version: 6.00 Build 0)  -->
<svg version="1.1" id="Camada_1" xmlns="http://www.w3.org/2000/svg" xmlns:xlink="http://www.w3.org/1999/xlink" x="0px" y="0px"
	 viewBox="0 0 20 20" style="enable-background:new 0 0 20 20;" xml:space="preserve">
<style type="text/css">
	.st0{clip-path:url(#SVGID_2_);}
	.st1{fill:#30333D;}
</style>
<g>
	<defs>
		<rect id="SVGID_1_" x="0.4" y="0.4" width="19.2" height="19.2"/>
	</defs>
	<clipPath id="SVGID_2_">
		<use xlink:href="#SVGID_1_"  style="overflow:visible;"/>
	</clipPath>
	<g class="st0">
		<path class="st1" d="M10,0.4c-5.3,0-9.6,4.3-9.6,9.6s4.3,9.6,9.6,9.6s9.6-4.3,9.6-9.6S15.3,0.4,10,0.4z M7.2,14.9H4.9v-7h2.3V14.9
			z M6,6.9L6,6.9c-0.8,0-1.3-0.5-1.3-1.2c0-0.7,0.5-1.2,1.3-1.2S7.3,5,7.4,5.7C7.4,6.4,6.9,6.9,6,6.9z M15.6,14.9h-2.3v-3.8
			c0-0.9-0.3-1.6-1.2-1.6c-0.6,0-1,0.4-1.2,0.9c-0.1,0.2-0.1,0.4-0.1,0.6v3.9H8.5c0,0,0-6.4,0-7h2.3v1c0.3-0.5,0.9-1.2,2.1-1.2
			c1.5,0,2.7,1,2.7,3.2V14.9z"/>
	</g>
</g>
</svg>
