<svg width="20" height="20" viewBox="0 0 25 26" fill="none" xmlns="http://www.w3.org/2000/svg">
<g clip-path="url(#clip0)">
<path d="M12.5 0.5C5.5975 0.5 0 6.0975 0 13C0 19.9025 5.5975 25.5 12.5 25.5C19.4025 25.5 25 19.9025 25 13C25 6.0975 19.4025 0.5 12.5 0.5ZM8.86765 19.3965H5.82333V10.2376H8.86765V19.3965ZM7.34558 8.98694H7.32574C6.30417 8.98694 5.64346 8.2837 5.64346 7.40479C5.64346 6.50605 6.32439 5.82227 7.3658 5.82227C8.40721 5.82227 9.04808 6.50605 9.06792 7.40479C9.06792 8.2837 8.40721 8.98694 7.34558 8.98694ZM19.8448 19.3965H16.8009V14.4967C16.8009 13.2653 16.3601 12.4255 15.2586 12.4255C14.4176 12.4255 13.9168 12.992 13.6967 13.5388C13.6162 13.7345 13.5965 14.008 13.5965 14.2817V19.3965H10.5524C10.5524 19.3965 10.5923 11.0968 10.5524 10.2376H13.5965V11.5344C14.0011 10.9103 14.7249 10.0226 16.3401 10.0226C18.343 10.0226 19.8448 11.3316 19.8448 14.1448V19.3965Z" fill="#30333D"/>
</g>
<defs>
<clipPath id="clip0">
<rect y="0.5" width="25" height="25" fill="white"/>
</clipPath>
</defs>
</svg>
