<?xml version="1.0" encoding="utf-8"?>
<!-- Generator: Adobe Illustrator 21.0.2, SVG Export Plug-In . SVG Version: 6.00 Build 0)  -->
<svg version="1.1" id="Camada_1" xmlns="http://www.w3.org/2000/svg" xmlns:xlink="http://www.w3.org/1999/xlink" x="0px" y="0px"
	 viewBox="0 0 20 20" style="enable-background:new 0 0 20 20;" xml:space="preserve">
<style type="text/css">
	.st0{clip-path:url(#SVGID_2_);}
	.st1{fill:#30333D;}
	.st2{fill:#FFFFFF;}
</style>
<g>
	<defs>
		<rect id="SVGID_1_" x="0.4" y="0.4" width="19.2" height="19.2"/>
	</defs>
	<clipPath id="SVGID_2_">
		<use xlink:href="#SVGID_1_"  style="overflow:visible;"/>
	</clipPath>
	<g class="st0">
		<path class="st1" d="M10,0.4c-5.3,0-9.6,4.3-9.6,9.6s4.3,9.6,9.6,9.6s9.6-4.3,9.6-9.6S15.3,0.4,10,0.4z"/>
	</g>
</g>
<g>
	<path class="st2" d="M15.4,7.8c0-0.6-0.1-1-0.3-1.3c-0.1-0.4-0.3-0.7-0.6-1s-0.6-0.5-1-0.6c-0.3-0.1-0.7-0.2-1.3-0.3
		c-0.6,0-0.8,0-2.2,0s-1.6,0-2.2,0c-0.6,0-1,0.1-1.3,0.3C6.1,5,5.8,5.2,5.5,5.5S5,6.1,4.9,6.5C4.8,6.8,4.7,7.2,4.6,7.8
		c0,0.6,0,0.8,0,2.2s0,1.6,0,2.2c0,0.6,0.1,1,0.3,1.3c0.1,0.4,0.3,0.7,0.6,1c0.3,0.3,0.6,0.5,1,0.6c0.3,0.1,0.7,0.2,1.3,0.3
		c0.6,0,0.8,0,2.2,0s1.6,0,2.2,0c0.6,0,1-0.1,1.3-0.3c0.7-0.3,1.3-0.9,1.6-1.6c0.1-0.3,0.2-0.7,0.3-1.3c0-0.6,0-0.8,0-2.2
		S15.4,8.4,15.4,7.8z M14.4,12.2c0,0.5-0.1,0.8-0.2,1c-0.2,0.5-0.6,0.8-1,1c-0.2,0.1-0.5,0.2-1,0.2c-0.6,0-0.7,0-2.2,0s-1.6,0-2.2,0
		c-0.5,0-0.8-0.1-1-0.2c-0.2-0.1-0.4-0.2-0.6-0.4s-0.3-0.4-0.4-0.6c-0.1-0.2-0.2-0.5-0.2-1c0-0.6,0-0.7,0-2.2s0-1.6,0-2.2
		c0-0.5,0.1-0.8,0.2-1C5.9,6.6,6,6.4,6.2,6.2C6.4,6,6.6,5.9,6.8,5.8c0.2-0.1,0.5-0.2,1-0.2c0.6,0,0.7,0,2.2,0c1.4,0,1.6,0,2.2,0
		c0.5,0,0.8,0.1,1,0.2s0.4,0.2,0.6,0.4c0.2,0.2,0.3,0.4,0.4,0.6c0.1,0.2,0.2,0.5,0.2,1c0,0.6,0,0.7,0,2.2S14.4,11.6,14.4,12.2z"/>
	<path class="st2" d="M10,7.2c-1.5,0-2.8,1.2-2.8,2.8s1.2,2.8,2.8,2.8c1.5,0,2.8-1.2,2.8-2.8S11.5,7.2,10,7.2z M10,11.8
		c-1,0-1.8-0.8-1.8-1.8S9,8.2,10,8.2S11.8,9,11.8,10S11,11.8,10,11.8z"/>
	<path class="st2" d="M13.5,7.1c0,0.4-0.3,0.6-0.6,0.6c-0.4,0-0.6-0.3-0.6-0.6c0-0.4,0.3-0.6,0.6-0.6S13.5,6.8,13.5,7.1z"/>
</g>
</svg>
