<svg width="32" height="18" viewBox="0 0 32 18" fill="none" xmlns="http://www.w3.org/2000/svg">
<path d="M29.5564 11.7419V5.38974C29.5564 4.98901 29.2979 4.63372 28.9164 4.51087L15.0615 0.044559C14.8774 -0.014853 14.679 -0.014853 14.4949 0.044559L0.64004 4.51087C0.258714 4.63372 0 4.98877 0 5.38974C0 5.79048 0.258714 6.14553 0.64004 6.26838L7.57633 8.5045V11.9689C7.57633 11.984 7.57681 11.9989 7.57752 12.0138C7.60497 12.9123 8.45402 13.7638 9.9753 14.4159C11.365 15.0116 13.0709 15.3397 14.7784 15.3397C16.486 15.3397 18.1919 15.0116 19.5816 14.4159C21.1282 13.7529 21.9801 12.8839 21.9801 11.9689V8.5045L27.7097 6.65752V11.7419C26.8481 12.1038 26.2412 12.9564 26.2412 13.9481V17.0766C26.2412 17.5865 26.6547 18 27.1645 18H30.1015C30.6114 18 31.0249 17.5865 31.0249 17.0766V13.9481C31.0249 12.9564 30.4182 12.1038 29.5564 11.7419ZM18.565 12.8354C17.4508 13.2593 16.1061 13.493 14.7784 13.493C13.4505 13.493 12.1058 13.2593 10.9919 12.8354C10.0155 12.4636 9.53456 12.0614 9.42308 11.8926V9.0998L14.4949 10.7347C14.5869 10.7643 14.6826 10.7792 14.7782 10.7792C14.8738 10.7792 14.9695 10.7645 15.0615 10.7347L20.1333 9.0998V11.8933C20.0209 12.0624 19.5402 12.464 18.565 12.8354ZM14.7782 8.88582L3.93279 5.38974L14.7782 1.89367L25.6236 5.38974L14.7782 8.88582ZM29.1782 16.1533H28.0879V13.9481C28.0879 13.6475 28.3327 13.403 28.633 13.403C28.9336 13.403 29.1782 13.6475 29.1782 13.9481V16.1533Z" fill="#FFD84F"/>
</svg>
