<?xml version="1.0" encoding="utf-8"?>
<!-- Generator: Adobe Illustrator 21.0.2, SVG Export Plug-In . SVG Version: 6.00 Build 0)  -->
<svg version="1.1" id="Camada_1" xmlns="http://www.w3.org/2000/svg" xmlns:xlink="http://www.w3.org/1999/xlink" x="0px" y="0px"
	 viewBox="0 0 35 33" style="enable-background:new 0 0 35 33;" xml:space="preserve">
<style type="text/css">
	.st0{fill:#FB6F6F;}
	.st1{fill:#FB6F6F;stroke:#FB6F6F;stroke-width:0.7;}
</style>
<title>ic-tools</title>
<desc>Created with Sketch.</desc>
<g id="Page-1">
	<g id="ic-tools">
		<path id="Shape" class="st0" d="M33.8,0H1.2C0.5,0,0,0.6,0,1.2v30.2c0,0.7,0.5,1.2,1.2,1.2h32.6c0.7,0,1.2-0.5,1.2-1.2V1.2
			C35,0.6,34.5,0,33.8,0z M32.6,30.3H2.4V2.4h30.2V30.3z"/>
		<path id="Path" class="st0" d="M33.8,7.3H1.2C0.5,7.3,0,7.8,0,8.5s0.5,1.2,1.2,1.2h32.6c0.7,0,1.2-0.5,1.2-1.2S34.5,7.3,33.8,7.3z
			"/>
		<g id="_x30_04-settings" transform="translate(10.000000, 13.000000)">
			<path id="Shape_1_" class="st1" d="M8,15H7c-0.8,0-1.4-0.6-1.4-1.4v-0.3c-0.3-0.1-0.6-0.2-0.9-0.4l-0.2,0.2c-0.5,0.5-1.4,0.5-2,0
				l-0.7-0.7c-0.5-0.5-0.5-1.4,0-2l0.2-0.2C1.9,10,1.8,9.7,1.7,9.4H1.4C0.6,9.4,0,8.7,0,8V7c0-0.8,0.6-1.4,1.4-1.4h0.3
				C1.8,5.3,1.9,5,2.1,4.7L1.9,4.5c-0.5-0.5-0.5-1.4,0-2l0.7-0.7c0.5-0.5,1.4-0.5,2,0l0.2,0.2C5,1.9,5.3,1.8,5.6,1.7V1.4
				C5.6,0.6,6.3,0,7,0H8c0.8,0,1.4,0.6,1.4,1.4v0.3c0.3,0.1,0.6,0.2,0.9,0.4l0.2-0.2c0.5-0.5,1.4-0.5,2,0l0.7,0.7
				c0.5,0.5,0.5,1.4,0,2l-0.2,0.2c0.2,0.3,0.3,0.6,0.4,0.9h0.3C14.4,5.6,15,6.3,15,7V8c0,0.8-0.6,1.4-1.4,1.4h-0.3
				c-0.1,0.3-0.2,0.6-0.4,0.9l0.2,0.2c0.5,0.5,0.5,1.4,0,2l-0.7,0.7c-0.5,0.5-1.4,0.5-2,0l-0.2-0.2c-0.3,0.2-0.6,0.3-0.9,0.4v0.3
				C9.4,14.4,8.7,15,8,15z M4.9,12c0.4,0.2,0.9,0.4,1.3,0.6c0.2,0.1,0.3,0.2,0.3,0.4v0.6c0,0.3,0.2,0.5,0.5,0.5H8
				c0.3,0,0.5-0.2,0.5-0.5V13c0-0.2,0.1-0.4,0.3-0.4c0.5-0.1,0.9-0.3,1.3-0.6c0.2-0.1,0.4-0.1,0.5,0.1l0.5,0.5
				c0.2,0.2,0.5,0.2,0.7,0l0.7-0.7c0.2-0.2,0.2-0.5,0-0.7l-0.5-0.5c-0.1-0.1-0.2-0.4-0.1-0.5c0.2-0.4,0.4-0.9,0.6-1.3
				c0.1-0.2,0.2-0.3,0.4-0.3h0.6c0.3,0,0.5-0.2,0.5-0.5V7c0-0.3-0.2-0.5-0.5-0.5H13c-0.2,0-0.4-0.1-0.4-0.3
				c-0.1-0.5-0.3-0.9-0.6-1.3c-0.1-0.2-0.1-0.4,0.1-0.5l0.5-0.5c0.2-0.2,0.2-0.5,0-0.7l-0.7-0.7c-0.2-0.2-0.5-0.2-0.7,0l-0.5,0.5
				c-0.1,0.1-0.4,0.2-0.5,0.1C9.7,2.8,9.3,2.6,8.8,2.5C8.6,2.4,8.5,2.2,8.5,2V1.4c0-0.3-0.2-0.5-0.5-0.5H7c-0.3,0-0.5,0.2-0.5,0.5V2
				c0,0.2-0.1,0.4-0.3,0.4C5.7,2.6,5.3,2.8,4.9,3C4.7,3.1,4.5,3.1,4.3,2.9L3.9,2.5c-0.2-0.2-0.5-0.2-0.7,0L2.5,3.2
				c-0.2,0.2-0.2,0.5,0,0.7l0.5,0.5C3.1,4.5,3.1,4.7,3,4.9C2.8,5.3,2.6,5.7,2.5,6.2C2.4,6.4,2.2,6.5,2,6.5H1.4
				C1.1,6.5,0.9,6.8,0.9,7V8c0,0.3,0.2,0.5,0.5,0.5H2c0.2,0,0.4,0.1,0.4,0.3C2.6,9.3,2.8,9.7,3,10.1c0.1,0.2,0.1,0.4-0.1,0.5
				l-0.5,0.5c-0.2,0.2-0.2,0.5,0,0.7l0.7,0.7c0.2,0.2,0.5,0.2,0.7,0l0.5-0.5C4.4,12,4.6,11.9,4.9,12L4.9,12z"/>
			<path id="Shape_2_" class="st1" d="M7.5,11C5.6,11,4,9.4,4,7.5S5.6,4,7.5,4S11,5.6,11,7.5S9.4,11,7.5,11z M7.5,4.9
				c-1.4,0-2.6,1.1-2.6,2.6s1.1,2.6,2.6,2.6s2.6-1.1,2.6-2.6S8.9,4.9,7.5,4.9L7.5,4.9z"/>
		</g>
	</g>
</g>
</svg>
