<svg width="23" height="20" viewBox="0 0 23 20" fill="none" xmlns="http://www.w3.org/2000/svg">
<path d="M21.9912 2.66684C21.9898 2.66684 21.9884 2.66667 21.987 2.66667H15.9704V2C15.9704 0.897222 15.0774 0 13.9797 0H8.67093C7.57324 0 6.68016 0.897222 6.68016 2V2.66667H0.663592C0.294123 2.66667 0 2.97083 0 3.33333V18C0 19.1028 0.893084 20 1.99078 20H20.6598C21.7575 20 22.6506 19.1028 22.6506 18V3.3474C22.6506 3.34653 22.6506 3.34566 22.6506 3.34479C22.6252 2.90694 22.3572 2.66927 21.9912 2.66684V2.66684ZM8.00734 2C8.00734 1.63247 8.30509 1.33333 8.67093 1.33333H13.9797C14.3455 1.33333 14.6433 1.63247 14.6433 2V2.66667H8.00734V2ZM21.0663 4L19.0055 10.2108C18.9151 10.4835 18.6621 10.6667 18.3761 10.6667H14.6433V10C14.6433 9.63177 14.3462 9.33333 13.9797 9.33333H8.67093C8.3044 9.33333 8.00734 9.63177 8.00734 10V10.6667H4.27447C3.98846 10.6667 3.73547 10.4835 3.64509 10.2108L1.58433 4H21.0663ZM13.3161 10.6667V12H9.33453V10.6667H13.3161ZM21.3234 18C21.3234 18.3675 21.0257 18.6667 20.6598 18.6667H1.99078C1.62494 18.6667 1.32718 18.3675 1.32718 18V7.44149L2.38599 10.6325C2.65731 11.4505 3.41629 12 4.27447 12H8.00734V12.6667C8.00734 13.0349 8.3044 13.3333 8.67093 13.3333H13.9797C14.3462 13.3333 14.6433 13.0349 14.6433 12.6667V12H18.3761C19.2343 12 19.9933 11.4505 20.2646 10.6325L21.3234 7.44149V18Z" fill="#4B53FF"/>
</svg>
